# xmcd
#
# Track frame offsets:
#	150
#	15489
#	29985
#	50649
#	66327
#	82838
#	96066
#	114356
#	133019
#	149044
#
# Disc length: 2337 seconds
#
# Revision: 0
# Processed by: cddbd v1.5.2PL0 Copyright (c) Steve Scherf et al.
# Submitted via: dBpowerAMP V4.0
#
DISCID=8d091f0a
DTITLE=Zygo and The Duce - One Turn of the Hourglass
DYEAR=1900
DGENRE=Country
TTITLE0=One Turn of the Hourglass
TTITLE1=Get Back Home to You
TTITLE2=He's in Your Hands Now
TTITLE3=I Do
TTITLE4=I Like to Drink
TTITLE5=Must be Love
TTITLE6=The One that got Away
TTITLE7=I Made You Cry
TTITLE8=Let the Rain Fall Down
TTITLE9=I Turn to You
EXTD=One Turn of the Hourglass
EXTT0=
EXTT1=
EXTT2=
EXTT3=
EXTT4=
EXTT5=
EXTT6=
EXTT7=
EXTT8=
EXTT9=
PLAYORDER=
